PathFileType	4	(X/Y/Z)	44_1_34_p1_0-193_filt_butterworth.trc
DataRate	CameraRate	NumFrames	NumMarkers	Units	OrigDataRate	OrigDataStartFrame	OrigNumFrames
59.0	59.0	5	27	m	59.0	96	193
Frame#	Time	RHip			RKnee			RAnkle			RBigToe			RSmallToe			RHeel			LHip			LKnee			LAnkle			LBigToe			LSmallToe			LHeel			Neck			Head			Nose			RShoulder			RElbow			RWrist			RThumb			RIndex			RPinky			LShoulder			LElbow			LWrist			LThumb			LIndex			LPinky			
		X1	Y1	Z1	X2	Y2	Z2	X3	Y3	Z3	X4	Y4	Z4	X5	Y5	Z5	X6	Y6	Z6	X7	Y7	Z7	X8	Y8	Z8	X9	Y9	Z9	X10	Y10	Z10	X11	Y11	Z11	X12	Y12	Z12	X13	Y13	Z13	X14	Y14	Z14	X15	Y15	Z15	X16	Y16	Z16	X17	Y17	Z17	X18	Y18	Z18	X19	Y19	Z19	X20	Y20	Z20	X21	Y21	Z21	X22	Y22	Z22	X23	Y23	Z23	X24	Y24	Z24	X25	Y25	Z25	X26	Y26	Z26	X27	Y27	Z27	
96	1.6271186440677967	0.3147578735812313	0.5140145122015211	1.0192930050505964	0.34089346736908915	0.5429012996906656	1.4099709353279795	0.3624535347923126	0.6375950260226242	1.8517303248882497	0.30411266737192566	0.4833882685070958	1.8967519615120674	0.37905038986527756	0.4543585903684518	1.8732285708955139	0.33034717814701436	0.7504022989794036	1.9252594908288299	0.11347323456890568	0.5420440787513112	1.0392385652149916	0.12040585334754023	0.5656224786101627	1.4130372114041196	0.14322977457808536	0.6363845924392932	1.857494729429281	0.14438154385719576	0.44600198529294355	1.868159331933691	0.08975851337908473	0.5138440585921147	1.8892710438001838	0.15941114132743017	0.7151482836216758	1.926222466972538	0.19010515930489483	0.4122981054373189	0.5221254472059208	0.21288731982202955	0.2932934561870851	0.27336688059594544	0.2265124605906782	0.2269629052948524	0.418950322690355	0.3383732918607786	0.3834406463948319	0.5852578667392451	0.3590803343098753	0.3957142118076808	0.8503808736933435	0.2534307657868357	0.391386799767095	1.0423728346988146	0.19562882152277494	0.4021933426478307	1.1345542945569906	0.20767042682767725	0.4019072213934357	1.1601418320063912	0.21673120404568164	0.37584501935626646	1.149343967625193	0.04580961661676134	0.413044353177592	0.5859222029258148	0.035434231477730414	0.45878919291125625	0.8643420854165214	0.1528319836853804	0.40064603464400794	1.0332853568408222	0.2421979589181768	0.3578621244779234	1.0794838021696835	0.2345538997598816	0.3538011926768819	1.1283170667094327	0.18002361556770927	0.42074620547183256	1.1645130500185892
97	1.6440677966101696	0.3145031149140518	0.5138088022888283	1.0171904021018563	0.34084242566830564	0.5421118484308096	1.4065186709310267	0.3623471955223885	0.637936081659352	1.8518764632421123	0.30283469841069494	0.4833405569793361	1.8968500133033035	0.3790483096264443	0.45438423378456866	1.8733077615588765	0.33117982147606223	0.750227027653212	1.925224873865001	0.11508198438443583	0.5425913636738053	1.0391690203243191	0.12042487637908206	0.5647958282375963	1.4101156450990266	0.14325076476412388	0.6363371277831913	1.857427526309106	0.14426997015807708	0.4451008635306717	1.8678327065458904	0.08899934269932624	0.5104189157437118	1.8877304984109113	0.15951509647191792	0.7150325402728662	1.9255465854652807	0.18909216022688768	0.4134861399656443	0.5222326625391155	0.21260913150288654	0.29324282688631537	0.2733868697471405	0.22623722268491422	0.22586452995493483	0.418943487897023	0.33835670149215324	0.3834085853635973	0.5852548222857412	0.35903414654358584	0.3956599005563719	0.8522703826073869	0.2534155297848672	0.3914695911494628	1.0424253030195934	0.19414075232833106	0.4051739325344438	1.1360627710306208	0.20613356990911524	0.40328673970427187	1.1605073673617596	0.21715296614703433	0.3758987187801693	1.1494302007142903	0.04572471818926405	0.413217130901551	0.5859384612033833	0.03544930778631938	0.4589721242228258	0.8643310711711238	0.15284554273017656	0.4006202535770366	1.03330503111458	0.2424902796595871	0.35748465938847546	1.0792260669993716	0.23459376577462981	0.3540769940228803	1.1287472328944055	0.17951699074842142	0.4225793121614889	1.1650592628860708
98	1.6610169491525424	0.314274884157565	0.5136626154041158	1.0144762685660846	0.3410579327724212	0.541499238147298	1.4032874994587206	0.36228018549147856	0.6381959451059255	1.8519707579063964	0.30281568384706886	0.4832378706186836	1.8968179744524958	0.3791448604091793	0.45467455197743195	1.8734632125173052	0.3314408366854417	0.7501808555885406	1.9253853475218956	0.1160999440709328	0.5427133946078636	1.0391807882801976	0.12071523772826348	0.5645278035173664	1.4082129293516459	0.14325678892676566	0.6363056051457698	1.857396538455395	0.14409930590917872	0.4443370633343246	1.867669247884269	0.08871204127108549	0.5091241161783737	1.8870953884469968	0.15981102361987884	0.7145155244775727	1.924001415090415	0.18898642996216664	0.41374894357663017	0.5222615065711627	0.21263449872579682	0.2931815531155235	0.27336815960487815	0.226228572304137	0.22579940180746993	0.41893973106643645	0.3383538100902786	0.38339150667861854	0.5852609350025815	0.3589355292225811	0.39592403510281265	0.853803064339784	0.25342015620093755	0.39150052450544476	1.0424730881741215	0.19366096887545287	0.40719067393693675	1.137489009222302	0.20495361685355898	0.40325425465620524	1.1604596696933374	0.21723001215798574	0.37588756274256135	1.1494811626736663	0.04571370298941325	0.41319786769316685	0.5859354910741846	0.03548335502333437	0.4590323752094313	0.8642717540094698	0.15285376032106776	0.40058878402599984	1.033300713093194	0.24210259027125308	0.358609776478282	1.0792433187706778	0.23456313192693773	0.35416585982936627	1.1284646076078266	0.1797623192997823	0.4232568181459814	1.1653338772991917
99	1.6779661016949152	0.31423199286461434	0.5137723167525357	1.012359254367045	0.3415279180687452	0.5413898692344004	1.4017381127881277	0.36226686108739586	0.6383140964505936	1.852002465132796	0.3030448071643772	0.48313771959742824	1.8966809639175402	0.379193460311826	0.4548223863424097	1.8735210401660236	0.33138777719834733	0.7502144185968473	1.9254585789963587	0.11650112942145077	0.5426973639727561	1.0390802878395191	0.12116064790621833	0.564252546016106	1.406198194877352	0.14325609649807444	0.6362864891087494	1.8573539815766376	0.1436680663874999	0.4431078423583312	1.867645909482391	0.08871352573323571	0.5091159313571171	1.8870169854515941	0.16018984680253104	0.7138044384959223	1.9221266591589485	0.1895893214804897	0.41369972454660997	0.5222522994401185	0.21272446889953986	0.2931486016391544	0.27336066250595226	0.22626444835922152	0.22592924104260448	0.4189426381441549	0.3383602056982798	0.3833747737883979	0.5852731711858175	0.3589282701787701	0.3961544198581846	0.8547999730536074	0.2534286472051597	0.39152608262039534	1.0424996363208945	0.1928413079192599	0.41087790561139664	1.1397347807967453	0.2044284525097281	0.403037285692405	1.1603667827800215	0.21722910800337317	0.3759156463924025	1.1495067752307326	0.04578266747717208	0.413020797162326	0.5859234397450503	0.0355299163099032	0.4590283639853757	0.8641675846389769	0.15285371384721186	0.4005759702422701	1.033269819981976	0.240560053561794	0.3616926242827042	1.0799582492785702	0.2344764810621955	0.35419857682449807	1.1278118265392596	0.18060388351811182	0.42208008522356477	1.1650872335326365
100	1.694915254237288	0.3144102345127418	0.5142661838105876	1.0115901746583402	0.3424257026408414	0.5417530547130966	1.4015378824369618	0.3622610737945977	0.6383140860254445	1.852009209212597	0.3030940620372633	0.4830658708379021	1.8965234928050083	0.3791796514185867	0.45481570793210657	1.8735064775527064	0.3313347107919777	0.7502837268090248	1.9253580705074587	0.11653274801564209	0.5425223000069106	1.0385617448350877	0.12149101757153197	0.5635444434186714	1.403624916692989	0.14325011961772255	0.6362720992716239	1.857278202969057	0.14304145625686718	0.44142971477283127	1.867702743057222	0.08875606713360852	0.5092385494931758	1.887040606368259	0.16046870157652393	0.7132475303572514	1.9207414897525095	0.19119410607348114	0.41276591961292897	0.5221591780114024	0.21280668413137943	0.2932056594991761	0.2733605818099242	0.22626204622022683	0.22595060258625552	0.41894852409677197	0.33836789911983484	0.38334554767227264	0.585284808674935	0.3590899478029545	0.39637119072454097	0.855865653971682	0.25342590786920544	0.3915465951201658	1.0425013655325108	0.19160166978149304	0.41531433060906686	1.142055181704322	0.20428580687745232	0.4032135974955056	1.1604216174823747	0.21723396152384555	0.3759410622750498	1.1495015569790912	0.04628351430534179	0.41172324535708144	0.5858290218886159	0.03558632097680748	0.4589907211101198	0.8641344777506934	0.15285191072649745	0.4005853642091314	1.0332268808913343	0.23803608094234566	0.3655879416298361	1.0810201873885823	0.23439682088741887	0.354177996009729	1.1272707493093677	0.1820264323705958	0.41861997780910587	1.1640306479916458
